<svg width="100%" viewBox="0 0 900 2100" xmlns="http://www.w3.org/2000/svg" font-family="'Apple SD Gothic Neo', 'Malgun Gothic', sans-serif">
  <defs>
    <marker id="arrow" viewBox="0 0 10 10" refX="8" refY="5" markerWidth="6" markerHeight="6" orient="auto-start-reverse">
      <path d="M2 1L8 5L2 9" fill="none" stroke="context-stroke" stroke-width="1.5" stroke-linecap="round" stroke-linejoin="round"/>
    </marker>
    <!-- Color Defs -->
    <style>
      text { font-family: 'Apple SD Gothic Neo', 'Malgun Gothic', 'Noto Sans KR', sans-serif; }
      .label-main { font-size: 15px; font-weight: 600; fill: #1a1a2e; }
      .label-sub  { font-size: 12px; font-weight: 400; fill: #555; }
      .label-path { font-size: 11px; font-weight: 500; fill: #2d6be4; font-family: monospace; }
      .label-code { font-size: 11px; fill: #1d8348; font-family: monospace; }
      .label-err  { font-size: 11px; fill: #c0392b; font-family: monospace; }
      .sec-title  { font-size: 17px; font-weight: 700; fill: #fff; }
      .arr-label  { font-size: 11px; fill: #888; }
    </style>
  </defs>

  <!-- ==================== BACKGROUND ==================== -->
  <rect width="900" height="2100" fill="#f8f9fa"/>

  <!-- ========== TITLE ========== -->
  <rect x="0" y="0" width="900" height="56" fill="#1a1a2e"/>
  <text x="450" y="36" text-anchor="middle" font-size="20" font-weight="700" fill="#fff">🦁 GentleLion API 동작 흐름도</text>

  <!-- =====================================================
       SECTION 1: AUTH (인증)
  ====================================================== -->
  <rect x="20" y="72" width="860" height="30" rx="6" fill="#2d6be4"/>
  <text x="440" y="93" text-anchor="middle" class="sec-title">📋 1. Auth API (인증)</text>

  <!-- === 1-1 회원가입 === -->
  <!-- Client -->
  <rect x="40" y="120" width="110" height="44" rx="8" fill="#dce8fd" stroke="#2d6be4" stroke-width="1"/>
  <text x="95" y="137" text-anchor="middle" class="label-main">클라이언트</text>
  <text x="95" y="153" text-anchor="middle" class="label-sub">회원가입 폼</text>

  <!-- Arrow -->
  <line x1="150" y1="142" x2="218" y2="142" stroke="#2d6be4" stroke-width="1.5" marker-end="url(#arrow)"/>
  <text x="184" y="135" text-anchor="middle" class="arr-label">POST</text>
  <text x="184" y="156" text-anchor="middle" class="label-path">/api/auth/signup</text>

  <!-- Server -->
  <rect x="220" y="120" width="110" height="44" rx="8" fill="#d5f5e3" stroke="#1d8348" stroke-width="1"/>
  <text x="275" y="137" text-anchor="middle" class="label-main">서버</text>
  <text x="275" y="153" text-anchor="middle" class="label-sub">유저 저장</text>

  <!-- Arrow to DB -->
  <line x1="330" y1="142" x2="398" y2="142" stroke="#1d8348" stroke-width="1.5" marker-end="url(#arrow)"/>
  <text x="364" y="135" text-anchor="middle" class="arr-label">INSERT</text>

  <!-- DB -->
  <rect x="400" y="120" width="110" height="44" rx="8" fill="#fef9e7" stroke="#f39c12" stroke-width="1"/>
  <text x="455" y="137" text-anchor="middle" class="label-main">DB</text>
  <text x="455" y="153" text-anchor="middle" class="label-sub">users 테이블</text>

  <!-- Arrow Response -->
  <line x1="510" y1="142" x2="578" y2="142" stroke="#1d8348" stroke-width="1.5" marker-end="url(#arrow)"/>

  <!-- Response -->
  <rect x="580" y="112" width="250" height="64" rx="8" fill="#eafaf1" stroke="#1d8348" stroke-width="1"/>
  <text x="590" y="130" class="label-main">✅ 201 Created</text>
  <text x="590" y="148" class="label-code">{ id, username, nickname,</text>
  <text x="590" y="163" class="label-code">  role: "user", point: 0 }</text>

  <!-- Error -->
  <rect x="580" y="184" width="250" height="30" rx="6" fill="#fde8e8" stroke="#c0392b" stroke-width="1"/>
  <text x="590" y="203" class="label-err">❌ 409 이미 사용 중인 아이디</text>

  <!-- === 1-2 로그인 === -->
  <line x1="40" y1="228" x2="860" y2="228" stroke="#e0e0e0" stroke-width="1" stroke-dasharray="4 3"/>
  <text x="50" y="250" class="label-sub" font-weight="600" fill="#2d6be4">로그인</text>

  <rect x="40" y="260" width="110" height="44" rx="8" fill="#dce8fd" stroke="#2d6be4" stroke-width="1"/>
  <text x="95" y="277" text-anchor="middle" class="label-main">클라이언트</text>
  <text x="95" y="293" text-anchor="middle" class="label-sub">로그인 폼</text>

  <line x1="150" y1="282" x2="218" y2="282" stroke="#2d6be4" stroke-width="1.5" marker-end="url(#arrow)"/>
  <text x="184" y="275" text-anchor="middle" class="arr-label">POST</text>
  <text x="184" y="296" text-anchor="middle" class="label-path">/api/auth/login</text>

  <rect x="220" y="260" width="110" height="44" rx="8" fill="#d5f5e3" stroke="#1d8348" stroke-width="1"/>
  <text x="275" y="277" text-anchor="middle" class="label-main">서버</text>
  <text x="275" y="293" text-anchor="middle" class="label-sub">JWT 발급</text>

  <line x1="330" y1="282" x2="578" y2="282" stroke="#1d8348" stroke-width="1.5" marker-end="url(#arrow)"/>

  <rect x="580" y="252" width="250" height="80" rx="8" fill="#eafaf1" stroke="#1d8348" stroke-width="1"/>
  <text x="590" y="270" class="label-main">✅ 200 OK</text>
  <text x="590" y="288" class="label-code">{ token: "eyJ...",</text>
  <text x="590" y="304" class="label-code">  user: { id, username,</text>
  <text x="590" y="320" class="label-code">    role, point } }</text>

  <rect x="580" y="340" width="250" height="30" rx="6" fill="#fde8e8" stroke="#c0392b" stroke-width="1"/>
  <text x="590" y="359" class="label-err">❌ 401 아이디/비밀번호 불일치</text>

  <!-- Token storage hint -->
  <rect x="220" y="378" width="610" height="28" rx="6" fill="#fff3cd" stroke="#f0ad4e" stroke-width="1"/>
  <text x="525" y="397" text-anchor="middle" font-size="12" fill="#856404">💡 로그인 성공 후 token을 localStorage에 저장 → 이후 모든 인증 요청 헤더에 Bearer {token} 추가</text>

  <!-- =====================================================
       SECTION 2: PRODUCT (상품)
  ====================================================== -->
  <rect x="20" y="420" width="860" height="30" rx="6" fill="#6c3483"/>
  <text x="440" y="441" text-anchor="middle" class="sec-title">🛍️ 2. Product API (상품)</text>

  <!-- 상품 목록 조회 -->
  <rect x="40" y="460" width="110" height="44" rx="8" fill="#e8d5f5" stroke="#6c3483" stroke-width="1"/>
  <text x="95" y="477" text-anchor="middle" class="label-main">클라이언트</text>
  <text x="95" y="493" text-anchor="middle" class="label-sub">상품 목록 요청</text>

  <line x1="150" y1="482" x2="218" y2="482" stroke="#6c3483" stroke-width="1.5" marker-end="url(#arrow)"/>
  <text x="184" y="475" text-anchor="middle" class="arr-label">GET</text>
  <text x="184" y="496" text-anchor="middle" font-size="10" fill="#6c3483" font-family="monospace">/api/products</text>

  <rect x="220" y="460" width="110" height="44" rx="8" fill="#d5f5e3" stroke="#1d8348" stroke-width="1"/>
  <text x="275" y="477" text-anchor="middle" class="label-main">서버</text>
  <text x="275" y="493" text-anchor="middle" class="label-sub">상품 조회</text>

  <line x1="330" y1="482" x2="398" y2="482" stroke="#1d8348" stroke-width="1.5" marker-end="url(#arrow)"/>

  <rect x="400" y="460" width="110" height="44" rx="8" fill="#fef9e7" stroke="#f39c12" stroke-width="1"/>
  <text x="455" y="477" text-anchor="middle" class="label-main">DB</text>
  <text x="455" y="493" text-anchor="middle" class="label-sub">products 테이블</text>

  <line x1="510" y1="482" x2="578" y2="482" stroke="#1d8348" stroke-width="1.5" marker-end="url(#arrow)"/>

  <rect x="580" y="452" width="250" height="96" rx="8" fill="#eafaf1" stroke="#1d8348" stroke-width="1"/>
  <text x="590" y="470" class="label-main">✅ 200 OK</text>
  <text x="590" y="488" class="label-code">{ content: [</text>
  <text x="590" y="504" class="label-code">  { id, title, category,</text>
  <text x="590" y="520" class="label-code">    color, soldOut, images }</text>
  <text x="590" y="536" class="label-code">], page, size, hasNext }</text>

  <!-- Query param hint -->
  <rect x="40" y="514" width="530" height="44" rx="6" fill="#f0e6ff" stroke="#6c3483" stroke-width="1"/>
  <text x="50" y="532" font-size="12" fill="#6c3483" font-weight="600">쿼리 파라미터 옵션</text>
  <text x="50" y="550" font-size="11" fill="#555">?page=0 &amp;category=0(안경)/1(선글라스) &amp;color=%23111111 &amp;search=무스비</text>

  <!-- =====================================================
       SECTION 3: CART (장바구니)
  ====================================================== -->
  <rect x="20" y="572" width="860" height="30" rx="6" fill="#117a65"/>
  <text x="440" y="593" text-anchor="middle" class="sec-title">🛒 3. Cart API (장바구니)</text>

  <!-- 장바구니 추가 -->
  <text x="50" y="618" class="label-sub" font-weight="600" fill="#117a65">상품 추가</text>

  <rect x="40" y="628" width="110" height="44" rx="8" fill="#d1f2eb" stroke="#117a65" stroke-width="1"/>
  <text x="95" y="645" text-anchor="middle" class="label-main">클라이언트</text>
  <text x="95" y="661" text-anchor="middle" class="label-sub">Bearer token</text>

  <line x1="150" y1="650" x2="218" y2="650" stroke="#117a65" stroke-width="1.5" marker-end="url(#arrow)"/>
  <text x="184" y="643" text-anchor="middle" class="arr-label">POST</text>
  <text x="184" y="664" text-anchor="middle" font-size="10" fill="#117a65" font-family="monospace">/api/cart</text>

  <!-- Auth Check -->
  <rect x="220" y="628" width="100" height="44" rx="8" fill="#f9ebea" stroke="#c0392b" stroke-width="1"/>
  <text x="270" y="645" text-anchor="middle" class="label-main">토큰</text>
  <text x="270" y="661" text-anchor="middle" class="label-sub">인증 확인</text>

  <line x1="320" y1="650" x2="388" y2="650" stroke="#117a65" stroke-width="1.5" marker-end="url(#arrow)"/>

  <rect x="390" y="628" width="100" height="44" rx="8" fill="#d5f5e3" stroke="#1d8348" stroke-width="1"/>
  <text x="440" y="645" text-anchor="middle" class="label-main">서버</text>
  <text x="440" y="661" text-anchor="middle" class="label-sub">cart 저장</text>

  <line x1="490" y1="650" x2="558" y2="650" stroke="#1d8348" stroke-width="1.5" marker-end="url(#arrow)"/>

  <rect x="560" y="620" width="270" height="64" rx="8" fill="#eafaf1" stroke="#1d8348" stroke-width="1"/>
  <text x="570" y="638" class="label-main">✅ 200 OK - 장바구니 목록 반환</text>
  <text x="570" y="655" class="label-code">{ content: [{ cartId, product,</text>
  <text x="570" y="671" class="label-code">  addedAt }] }</text>

  <!-- 에러들 -->
  <rect x="560" y="692" width="270" height="68" rx="6" fill="#fde8e8" stroke="#c0392b" stroke-width="1"/>
  <text x="570" y="710" class="label-err">❌ 401 인증 필요</text>
  <text x="570" y="727" class="label-err">❌ 404 상품 없음</text>
  <text x="570" y="744" class="label-err">❌ 409 이미 담긴 상품</text>

  <!-- 삭제 -->
  <line x1="40" y1="768" x2="860" y2="768" stroke="#e0e0e0" stroke-width="1" stroke-dasharray="4 3"/>
  <text x="50" y="788" class="label-sub" font-weight="600" fill="#117a65">선택 삭제 / 전체 삭제</text>

  <rect x="40" y="798" width="160" height="30" rx="6" fill="#d1f2eb" stroke="#117a65" stroke-width="1"/>
  <text x="120" y="817" text-anchor="middle" font-size="12" fill="#117a65" font-family="monospace">DELETE /api/cart/select</text>

  <line x1="200" y1="813" x2="260" y2="813" stroke="#c0392b" stroke-width="1.5" marker-end="url(#arrow)"/>

  <rect x="262" y="798" width="180" height="30" rx="6" fill="#fde8e8" stroke="#c0392b" stroke-width="1"/>
  <text x="352" y="817" text-anchor="middle" font-size="12" fill="#c0392b">선택된 cartId 목록 삭제</text>

  <rect x="460" y="798" width="160" height="30" rx="6" fill="#d1f2eb" stroke="#117a65" stroke-width="1"/>
  <text x="540" y="817" text-anchor="middle" font-size="12" fill="#117a65" font-family="monospace">DELETE /api/cart</text>

  <line x1="620" y1="813" x2="680" y2="813" stroke="#c0392b" stroke-width="1.5" marker-end="url(#arrow)"/>

  <rect x="682" y="798" width="148" height="30" rx="6" fill="#fde8e8" stroke="#c0392b" stroke-width="1"/>
  <text x="756" y="817" text-anchor="middle" font-size="12" fill="#c0392b">장바구니 전체 비우기</text>

  <!-- =====================================================
       SECTION 4: ORDER (주문)
  ====================================================== -->
  <rect x="20" y="844" width="860" height="30" rx="6" fill="#784212"/>
  <text x="440" y="865" text-anchor="middle" class="sec-title">📦 4. Order API (주문/결제)</text>

  <!-- 주문 생성 흐름 -->
  <!-- Step boxes -->
  <rect x="40" y="888" width="100" height="50" rx="8" fill="#fdebd0" stroke="#e67e22" stroke-width="1.5"/>
  <text x="90" y="908" text-anchor="middle" font-size="13" font-weight="600" fill="#784212">①</text>
  <text x="90" y="926" text-anchor="middle" class="label-sub">상품 선택</text>

  <line x1="140" y1="913" x2="178" y2="913" stroke="#e67e22" stroke-width="1.5" marker-end="url(#arrow)"/>

  <rect x="180" y="888" width="100" height="50" rx="8" fill="#fdebd0" stroke="#e67e22" stroke-width="1.5"/>
  <text x="230" y="908" text-anchor="middle" font-size="13" font-weight="600" fill="#784212">②</text>
  <text x="230" y="926" text-anchor="middle" class="label-sub">배송 정보 입력</text>

  <line x1="280" y1="913" x2="318" y2="913" stroke="#e67e22" stroke-width="1.5" marker-end="url(#arrow)"/>

  <rect x="320" y="888" width="120" height="50" rx="8" fill="#d5f5e3" stroke="#1d8348" stroke-width="1.5"/>
  <text x="380" y="908" text-anchor="middle" font-size="13" font-weight="600" fill="#1d8348">③</text>
  <text x="380" y="926" text-anchor="middle" class="label-sub">POST /api/order</text>

  <line x1="440" y1="913" x2="478" y2="913" stroke="#1d8348" stroke-width="1.5" marker-end="url(#arrow)"/>

  <rect x="480" y="888" width="100" height="50" rx="8" fill="#fef9e7" stroke="#f39c12" stroke-width="1"/>
  <text x="530" y="908" text-anchor="middle" font-size="13" font-weight="600" fill="#784212">④</text>
  <text x="530" y="926" text-anchor="middle" class="label-sub">DB 저장</text>

  <line x1="580" y1="913" x2="618" y2="913" stroke="#1d8348" stroke-width="1.5" marker-end="url(#arrow)"/>

  <rect x="620" y="880" width="210" height="66" rx="8" fill="#eafaf1" stroke="#1d8348" stroke-width="1"/>
  <text x="630" y="898" class="label-main">✅ 201 Created</text>
  <text x="630" y="914" class="label-code">{ orderId: 1,</text>
  <text x="630" y="930" class="label-code">  totalPrice: 259000,</text>
  <text x="630" y="946" class="label-code">  orderedAt: "..." }</text>

  <!-- 에러 -->
  <rect x="40" y="948" width="570" height="54" rx="6" fill="#fde8e8" stroke="#c0392b" stroke-width="1"/>
  <text x="50" y="966" class="label-err">❌ 400 수량 1미만 or 배송 정보 누락</text>
  <text x="50" y="983" class="label-err">❌ 401 인증 필요  |  404 상품 없음  |  409 품절 상품 주문 불가</text>

  <!-- 주문 상태 흐름 -->
  <line x1="40" y1="1010" x2="860" y2="1010" stroke="#e0e0e0" stroke-width="1" stroke-dasharray="4 3"/>
  <text x="50" y="1030" font-size="13" font-weight="600" fill="#784212">주문 상태 흐름</text>

  <rect x="40"  y="1042" width="110" height="36" rx="18" fill="#fdebd0" stroke="#e67e22" stroke-width="1.5"/>
  <text x="95"  y="1065" text-anchor="middle" font-size="13" fill="#784212">pending</text>

  <line x1="150" y1="1060" x2="200" y2="1060" stroke="#e67e22" stroke-width="1.5" marker-end="url(#arrow)"/>

  <rect x="202" y="1042" width="110" height="36" rx="18" fill="#d6eaf8" stroke="#2980b9" stroke-width="1.5"/>
  <text x="257" y="1065" text-anchor="middle" font-size="13" fill="#1a5276">shipping</text>

  <line x1="312" y1="1060" x2="362" y2="1060" stroke="#2980b9" stroke-width="1.5" marker-end="url(#arrow)"/>

  <rect x="364" y="1042" width="110" height="36" rx="18" fill="#d5f5e3" stroke="#1d8348" stroke-width="1.5"/>
  <text x="419" y="1065" text-anchor="middle" font-size="13" fill="#1d6a42">delivered</text>

  <text x="560" y="1052" text-anchor="middle" font-size="13" fill="#888">or</text>

  <rect x="600" y="1042" width="110" height="36" rx="18" fill="#fde8e8" stroke="#c0392b" stroke-width="1.5"/>
  <text x="655" y="1065" text-anchor="middle" font-size="13" fill="#922b21">cancelled</text>

  <text x="50" y="1092" font-size="12" fill="#888">※ PATCH /api/order/{orderId}/cancel 으로 주문 취소</text>
  <text x="50" y="1108" font-size="12" fill="#888">※ GET /api/order, GET /api/order/{orderId} 로 목록/상세 조회</text>

  <!-- =====================================================
       SECTION 5: REVIEW (리뷰)
  ====================================================== -->
  <rect x="20" y="1124" width="860" height="30" rx="6" fill="#1a5276"/>
  <text x="440" y="1145" text-anchor="middle" class="sec-title">⭐ 5. Review API (리뷰)</text>

  <!-- CRUD 4개 -->
  <!-- 생성 -->
  <rect x="40" y="1166" width="190" height="80" rx="8" fill="#d6eaf8" stroke="#1a5276" stroke-width="1"/>
  <text x="50" y="1184" class="label-main">🆕 리뷰 생성</text>
  <text x="50" y="1200" class="label-code">POST /api/reviews</text>
  <text x="50" y="1216" class="label-sub">{ productId, rating(1~5),</text>
  <text x="50" y="1232" class="label-sub">  content }</text>

  <line x1="230" y1="1206" x2="258" y2="1206" stroke="#1a5276" stroke-width="1.5" marker-end="url(#arrow)"/>
  <rect x="260" y="1194" width="120" height="30" rx="6" fill="#eafaf1" stroke="#1d8348" stroke-width="1"/>
  <text x="320" y="1213" text-anchor="middle" class="label-code">201 Created</text>

  <!-- 조회 -->
  <rect x="40" y="1260" width="190" height="66" rx="8" fill="#d6eaf8" stroke="#1a5276" stroke-width="1"/>
  <text x="50" y="1278" class="label-main">🔍 리뷰 조회</text>
  <text x="50" y="1294" class="label-code">GET /api/reviews</text>
  <text x="50" y="1310" class="label-sub">?productId={id}</text>

  <line x1="230" y1="1293" x2="258" y2="1293" stroke="#1a5276" stroke-width="1.5" marker-end="url(#arrow)"/>
  <rect x="260" y="1281" width="120" height="30" rx="6" fill="#eafaf1" stroke="#1d8348" stroke-width="1"/>
  <text x="320" y="1300" text-anchor="middle" class="label-code">200 OK</text>

  <!-- 수정 -->
  <rect x="400" y="1166" width="190" height="80" rx="8" fill="#d6eaf8" stroke="#1a5276" stroke-width="1"/>
  <text x="410" y="1184" class="label-main">✏️ 리뷰 수정</text>
  <text x="410" y="1200" class="label-code">PUT /api/reviews/{id}</text>
  <text x="410" y="1216" class="label-sub">Authorization: Bearer token</text>
  <text x="410" y="1232" class="label-sub">{ rating, content }</text>

  <line x1="590" y1="1206" x2="618" y2="1206" stroke="#1a5276" stroke-width="1.5" marker-end="url(#arrow)"/>
  <rect x="620" y="1194" width="120" height="30" rx="6" fill="#eafaf1" stroke="#1d8348" stroke-width="1"/>
  <text x="680" y="1213" text-anchor="middle" class="label-code">200 OK</text>

  <!-- 삭제 -->
  <rect x="400" y="1260" width="190" height="66" rx="8" fill="#fde8e8" stroke="#c0392b" stroke-width="1"/>
  <text x="410" y="1278" class="label-main">🗑️ 리뷰 삭제</text>
  <text x="410" y="1294" class="label-code">DELETE /api/reviews/{id}</text>
  <text x="410" y="1310" class="label-sub">Authorization: Bearer token</text>

  <line x1="590" y1="1293" x2="618" y2="1293" stroke="#c0392b" stroke-width="1.5" marker-end="url(#arrow)"/>
  <rect x="620" y="1281" width="120" height="30" rx="6" fill="#fde8e8" stroke="#c0392b" stroke-width="1"/>
  <text x="680" y="1300" text-anchor="middle" class="label-code">200 OK</text>

  <!-- =====================================================
       SECTION 6: WISHLIST (위시리스트)
  ====================================================== -->
  <rect x="20" y="1344" width="860" height="30" rx="6" fill="#76448a"/>
  <text x="440" y="1365" text-anchor="middle" class="sec-title">❤️ 6. Wishlist API (위시리스트)</text>

  <rect x="40" y="1386" width="190" height="66" rx="8" fill="#f0e6ff" stroke="#76448a" stroke-width="1"/>
  <text x="50" y="1404" class="label-main">👀 조회</text>
  <text x="50" y="1420" class="label-code">GET /api/wishlist</text>
  <text x="50" y="1436" class="label-sub">Bearer token 필요</text>

  <rect x="250" y="1386" width="190" height="66" rx="8" fill="#f0e6ff" stroke="#76448a" stroke-width="1"/>
  <text x="260" y="1404" class="label-main">➕ 추가</text>
  <text x="260" y="1420" class="label-code">POST /api/wishlist</text>
  <text x="260" y="1436" class="label-sub">{ productId }  Bearer token</text>

  <rect x="460" y="1386" width="190" height="66" rx="8" fill="#fde8e8" stroke="#c0392b" stroke-width="1"/>
  <text x="470" y="1404" class="label-main">🗑️ 삭제</text>
  <text x="470" y="1420" class="label-code">DELETE /api/wishlist/{id}</text>
  <text x="470" y="1436" class="label-sub">Bearer token 필요</text>

  <rect x="660" y="1386" width="170" height="66" rx="8" fill="#eafaf1" stroke="#1d8348" stroke-width="1"/>
  <text x="670" y="1404" class="label-main">모두 200 OK</text>
  <text x="670" y="1420" class="label-sub">중복 찜 시 409</text>
  <text x="670" y="1436" class="label-sub">미인증 시 401</text>

  <!-- =====================================================
       SECTION 7: ADMIN (관리자)
  ====================================================== -->
  <rect x="20" y="1468" width="860" height="30" rx="6" fill="#641e16"/>
  <text x="440" y="1489" text-anchor="middle" class="sec-title">🛡️ 7. Admin API (관리자 전용)</text>

  <!-- 관리자 권한 표시 -->
  <rect x="40" y="1508" width="820" height="30" rx="6" fill="#fde8e8" stroke="#c0392b" stroke-width="1"/>
  <text x="450" y="1527" text-anchor="middle" font-size="13" fill="#c0392b" font-weight="600">⚠️ role: "admin" 인 계정만 접근 가능. 일반 유저 접근 시 403 Forbidden 반환</text>

  <!-- 관리자 기능 표 -->
  <!-- 헤더 -->
  <rect x="40" y="1546" width="200" height="30" rx="0" fill="#641e16"/>
  <rect x="240" y="1546" width="200" height="30" rx="0" fill="#641e16"/>
  <rect x="440" y="1546" width="200" height="30" rx="0" fill="#641e16"/>
  <rect x="640" y="1546" width="220" height="30" rx="0" fill="#641e16"/>
  <text x="140" y="1566" text-anchor="middle" font-size="13" fill="#fff" font-weight="600">리소스</text>
  <text x="340" y="1566" text-anchor="middle" font-size="13" fill="#fff" font-weight="600">조회</text>
  <text x="540" y="1566" text-anchor="middle" font-size="13" fill="#fff" font-weight="600">생성 / 수정</text>
  <text x="750" y="1566" text-anchor="middle" font-size="13" fill="#fff" font-weight="600">삭제</text>

  <!-- Row 1: 사용자 -->
  <rect x="40"  y="1576" width="200" height="40" fill="#fdf2f8" stroke="#ddd" stroke-width="0.5"/>
  <rect x="240" y="1576" width="200" height="40" fill="#fff" stroke="#ddd" stroke-width="0.5"/>
  <rect x="440" y="1576" width="200" height="40" fill="#fff" stroke="#ddd" stroke-width="0.5"/>
  <rect x="640" y="1576" width="220" height="40" fill="#fff" stroke="#ddd" stroke-width="0.5"/>
  <text x="140" y="1600" text-anchor="middle" font-size="13" fill="#641e16" font-weight="600">👤 사용자</text>
  <text x="340" y="1592" text-anchor="middle" font-size="11" fill="#555" font-family="monospace">GET /admin/users</text>
  <text x="340" y="1608" text-anchor="middle" font-size="11" fill="#555" font-family="monospace">GET /admin/users/{id}</text>
  <text x="540" y="1600" text-anchor="middle" font-size="11" fill="#555" font-family="monospace">PATCH /admin/users/{id}</text>
  <text x="750" y="1600" text-anchor="middle" font-size="11" fill="#c0392b" font-family="monospace">DELETE /admin/users/{id}</text>

  <!-- Row 2: 상품 -->
  <rect x="40"  y="1616" width="200" height="40" fill="#fdf2f8" stroke="#ddd" stroke-width="0.5"/>
  <rect x="240" y="1616" width="200" height="40" fill="#f8f9fa" stroke="#ddd" stroke-width="0.5"/>
  <rect x="440" y="1616" width="200" height="40" fill="#f8f9fa" stroke="#ddd" stroke-width="0.5"/>
  <rect x="640" y="1616" width="220" height="40" fill="#f8f9fa" stroke="#ddd" stroke-width="0.5"/>
  <text x="140" y="1640" text-anchor="middle" font-size="13" fill="#641e16" font-weight="600">🛍️ 상품</text>
  <text x="340" y="1632" text-anchor="middle" font-size="11" fill="#555" font-family="monospace">GET /admin/products</text>
  <text x="340" y="1648" text-anchor="middle" font-size="11" fill="#555" font-family="monospace">GET /admin/products/{id}</text>
  <text x="540" y="1632" text-anchor="middle" font-size="11" fill="#555" font-family="monospace">POST /admin/products</text>
  <text x="540" y="1648" text-anchor="middle" font-size="11" fill="#555" font-family="monospace">PATCH /admin/products/{id}</text>
  <text x="750" y="1640" text-anchor="middle" font-size="11" fill="#c0392b" font-family="monospace">DELETE /admin/products/{id}</text>

  <!-- Row 3: 리뷰 -->
  <rect x="40"  y="1656" width="200" height="40" fill="#fdf2f8" stroke="#ddd" stroke-width="0.5"/>
  <rect x="240" y="1656" width="200" height="40" fill="#fff" stroke="#ddd" stroke-width="0.5"/>
  <rect x="440" y="1656" width="200" height="40" fill="#fff" stroke="#ddd" stroke-width="0.5"/>
  <rect x="640" y="1656" width="220" height="40" fill="#fff" stroke="#ddd" stroke-width="0.5"/>
  <text x="140" y="1680" text-anchor="middle" font-size="13" fill="#641e16" font-weight="600">⭐ 리뷰</text>
  <text x="340" y="1680" text-anchor="middle" font-size="11" fill="#555" font-family="monospace">GET /admin/reviews</text>
  <text x="540" y="1680" text-anchor="middle" font-size="11" fill="#555" font-family="monospace">PATCH /admin/reviews/{id}</text>
  <text x="750" y="1680" text-anchor="middle" font-size="11" fill="#c0392b" font-family="monospace">DELETE /admin/reviews/{id}</text>

  <!-- Row 4: 주문 -->
  <rect x="40"  y="1696" width="200" height="40" fill="#fdf2f8" stroke="#ddd" stroke-width="0.5"/>
  <rect x="240" y="1696" width="200" height="40" fill="#f8f9fa" stroke="#ddd" stroke-width="0.5"/>
  <rect x="440" y="1696" width="200" height="40" fill="#f8f9fa" stroke="#ddd" stroke-width="0.5"/>
  <rect x="640" y="1696" width="220" height="40" fill="#f8f9fa" stroke="#ddd" stroke-width="0.5"/>
  <text x="140" y="1720" text-anchor="middle" font-size="13" fill="#641e16" font-weight="600">📦 주문</text>
  <text x="340" y="1712" text-anchor="middle" font-size="11" fill="#555" font-family="monospace">GET /admin/orders</text>
  <text x="340" y="1728" text-anchor="middle" font-size="11" fill="#555" font-family="monospace">GET /admin/orders/{id}</text>
  <text x="540" y="1720" text-anchor="middle" font-size="11" fill="#555" font-family="monospace">PATCH /admin/orders/{id}</text>
  <text x="750" y="1720" text-anchor="middle" font-size="11" fill="#555">—</text>

  <!-- =====================================================
       SECTION 8: 전체 흐름 요약
  ====================================================== -->
  <rect x="20" y="1752" width="860" height="30" rx="6" fill="#2c3e50"/>
  <text x="440" y="1773" text-anchor="middle" class="sec-title">🔄 8. 전체 쇼핑 흐름 요약</text>

  <!-- Full flow steps -->
  <rect x="40" y="1796" width="80" height="50" rx="8" fill="#dce8fd" stroke="#2d6be4" stroke-width="1.5"/>
  <text x="80" y="1816" text-anchor="middle" font-size="12" font-weight="600" fill="#1a4c99">회원가입</text>
  <text x="80" y="1832" text-anchor="middle" font-size="11" fill="#555">POST</text>
  <text x="80" y="1844" text-anchor="middle" font-size="10" fill="#2d6be4" font-family="monospace">/auth/signup</text>

  <line x1="120" y1="1821" x2="148" y2="1821" stroke="#2c3e50" stroke-width="1.5" marker-end="url(#arrow)"/>

  <rect x="150" y="1796" width="80" height="50" rx="8" fill="#dce8fd" stroke="#2d6be4" stroke-width="1.5"/>
  <text x="190" y="1816" text-anchor="middle" font-size="12" font-weight="600" fill="#1a4c99">로그인</text>
  <text x="190" y="1832" text-anchor="middle" font-size="11" fill="#555">POST</text>
  <text x="190" y="1844" text-anchor="middle" font-size="10" fill="#2d6be4" font-family="monospace">/auth/login</text>

  <line x1="230" y1="1821" x2="258" y2="1821" stroke="#2c3e50" stroke-width="1.5" marker-end="url(#arrow)"/>

  <rect x="260" y="1796" width="80" height="50" rx="8" fill="#e8d5f5" stroke="#6c3483" stroke-width="1.5"/>
  <text x="300" y="1816" text-anchor="middle" font-size="12" font-weight="600" fill="#4a235a">상품</text>
  <text x="300" y="1832" text-anchor="middle" font-size="11" fill="#555">탐색</text>
  <text x="300" y="1844" text-anchor="middle" font-size="10" fill="#6c3483" font-family="monospace">/products</text>

  <line x1="340" y1="1821" x2="368" y2="1821" stroke="#2c3e50" stroke-width="1.5" marker-end="url(#arrow)"/>

  <rect x="370" y="1796" width="80" height="50" rx="8" fill="#d1f2eb" stroke="#117a65" stroke-width="1.5"/>
  <text x="410" y="1816" text-anchor="middle" font-size="12" font-weight="600" fill="#0e6251">장바구니</text>
  <text x="410" y="1832" text-anchor="middle" font-size="11" fill="#555">담기</text>
  <text x="410" y="1844" text-anchor="middle" font-size="10" fill="#117a65" font-family="monospace">/cart</text>

  <line x1="450" y1="1821" x2="478" y2="1821" stroke="#2c3e50" stroke-width="1.5" marker-end="url(#arrow)"/>

  <rect x="480" y="1796" width="80" height="50" rx="8" fill="#fdebd0" stroke="#e67e22" stroke-width="1.5"/>
  <text x="520" y="1816" text-anchor="middle" font-size="12" font-weight="600" fill="#784212">주문</text>
  <text x="520" y="1832" text-anchor="middle" font-size="11" fill="#555">결제</text>
  <text x="520" y="1844" text-anchor="middle" font-size="10" fill="#e67e22" font-family="monospace">/order</text>

  <line x1="560" y1="1821" x2="588" y2="1821" stroke="#2c3e50" stroke-width="1.5" marker-end="url(#arrow)"/>

  <rect x="590" y="1796" width="80" height="50" rx="8" fill="#d6eaf8" stroke="#1a5276" stroke-width="1.5"/>
  <text x="630" y="1816" text-anchor="middle" font-size="12" font-weight="600" fill="#1a4c99">리뷰</text>
  <text x="630" y="1832" text-anchor="middle" font-size="11" fill="#555">작성</text>
  <text x="630" y="1844" text-anchor="middle" font-size="10" fill="#1a5276" font-family="monospace">/reviews</text>

  <!-- =====================================================
       SECTION 9: 에러 코드 요약
  ====================================================== -->
  <rect x="20" y="1864" width="860" height="30" rx="6" fill="#515a5a"/>
  <text x="440" y="1885" text-anchor="middle" class="sec-title">🚨 공통 에러 코드 정리</text>

  <rect x="40" y="1906" width="130" height="40" rx="6" fill="#fde8e8" stroke="#c0392b" stroke-width="1"/>
  <text x="105" y="1926" text-anchor="middle" font-size="14" font-weight="700" fill="#c0392b">400</text>
  <text x="105" y="1940" text-anchor="middle" font-size="11" fill="#555">잘못된 요청/파라미터</text>

  <rect x="185" y="1906" width="130" height="40" rx="6" fill="#fde8e8" stroke="#c0392b" stroke-width="1"/>
  <text x="250" y="1926" text-anchor="middle" font-size="14" font-weight="700" fill="#c0392b">401</text>
  <text x="250" y="1940" text-anchor="middle" font-size="11" fill="#555">인증 없음/만료</text>

  <rect x="330" y="1906" width="130" height="40" rx="6" fill="#fde8e8" stroke="#c0392b" stroke-width="1"/>
  <text x="395" y="1926" text-anchor="middle" font-size="14" font-weight="700" fill="#c0392b">403</text>
  <text x="395" y="1940" text-anchor="middle" font-size="11" fill="#555">권한 없음</text>

  <rect x="475" y="1906" width="130" height="40" rx="6" fill="#fde8e8" stroke="#c0392b" stroke-width="1"/>
  <text x="540" y="1926" text-anchor="middle" font-size="14" font-weight="700" fill="#c0392b">404</text>
  <text x="540" y="1940" text-anchor="middle" font-size="11" fill="#555">리소스 없음</text>

  <rect x="620" y="1906" width="130" height="40" rx="6" fill="#fde8e8" stroke="#c0392b" stroke-width="1"/>
  <text x="685" y="1926" text-anchor="middle" font-size="14" font-weight="700" fill="#c0392b">409</text>
  <text x="685" y="1940" text-anchor="middle" font-size="11" fill="#555">중복/충돌</text>

  <!-- Footer -->
  <rect x="0" y="1960" width="900" height="40" fill="#1a1a2e"/>
  <text x="450" y="1985" text-anchor="middle" font-size="12" fill="#aaa">GentleLion API 흐름도 | Base URL: /api | 인증: Bearer JWT Token</text>
</svg>
